<?xml version="1.0" standalone="no"?>
<!DOCTYPE svg PUBLIC "-//W3C//DTD SVG 20010904//EN"
 "http://www.w3.org/TR/2001/REC-SVG-20010904/DTD/svg10.dtd">
<svg version="1.0" xmlns="http://www.w3.org/2000/svg"
 width="1024.000000pt" height="1024.000000pt" viewBox="0 0 1024.000000 1024.000000"
 preserveAspectRatio="xMidYMid meet">

<g transform="translate(0.000000,1024.000000) scale(0.100000,-0.100000)"
fill="#000000" stroke="none">
<path d="M0 5120 l0 -5120 5120 0 5120 0 0 5120 0 5120 -5120 0 -5120 0 0
-5120z m5499 3425 c592 -80 1058 -255 1528 -577 440 -301 840 -760 1080 -1240
193 -388 298 -735 354 -1173 29 -225 31 -662 5 -890 -74 -644 -285 -1195 -639
-1669 -310 -417 -708 -749 -1177 -985 -470 -237 -931 -355 -1441 -368 -333 -9
-598 22 -934 107 -445 113 -855 313 -1248 608 -163 122 -410 363 -541 527
-345 432 -600 1011 -690 1570 -39 244 -41 271 -41 630 1 392 8 473 65 751 130
624 390 1151 795 1609 34 39 75 85 91 103 46 53 252 236 362 322 245 190 621
395 917 499 286 101 630 172 945 195 110 8 458 -3 569 -19z"/>
<path d="M4815 8429 c-276 -27 -615 -108 -875 -211 -319 -126 -701 -352 -925
-546 -791 -689 -1208 -1720 -1136 -2812 22 -345 66 -584 161 -870 221 -671
570 -1166 1103 -1563 459 -343 1006 -560 1617 -643 172 -24 537 -24 715 0 647
84 1221 325 1705 715 128 103 378 353 477 477 322 405 562 938 647 1439 49
288 69 701 47 975 -56 700 -301 1326 -725 1854 -547 680 -1344 1106 -2221
1186 -129 12 -461 11 -590 -1z m570 -229 c339 -31 638 -110 965 -254 222 -98
514 -282 695 -437 617 -531 1004 -1285 1056 -2056 9 -144 0 -397 -16 -423 -3
-5 -41 8 -91 33 l-85 42 7 49 c12 92 7 368 -10 486 -44 309 -134 585 -286 877
-289 554 -662 933 -1175 1195 -411 209 -814 313 -1255 325 -250 6 -429 -10
-661 -62 -240 -54 -594 -182 -698 -254 -14 -9 -62 -27 -106 -38 -159 -42 -362
-142 -528 -260 -108 -77 -348 -316 -430 -428 -87 -118 -168 -275 -207 -403
-17 -56 -30 -106 -28 -111 4 -9 281 283 364 384 142 174 324 346 464 440 206
138 390 201 675 229 261 27 353 49 502 125 165 82 293 113 477 112 145 0 269
-28 399 -89 122 -57 199 -113 308 -222 85 -86 101 -108 152 -210 65 -133 87
-212 87 -326 0 -145 -49 -265 -142 -349 -91 -82 -240 -136 -376 -135 l-57 1
58 24 c140 58 251 158 306 275 37 79 37 194 0 265 -14 28 -29 50 -35 50 -5 0
-12 -22 -15 -50 -7 -54 -34 -132 -54 -153 -10 -11 -13 3 -18 65 -6 92 -27 157
-73 234 -37 61 -134 161 -210 216 -51 36 -176 103 -193 103 -6 0 -2 -24 8 -53
24 -69 33 -129 23 -145 -6 -9 -29 2 -87 44 -106 76 -185 118 -275 145 -100 31
-319 34 -420 5 -74 -20 -160 -55 -159 -65 0 -3 21 -19 47 -36 107 -69 125
-177 32 -200 -25 -6 -53 6 -190 82 -77 43 -149 57 -267 50 -163 -9 -318 -78
-450 -201 -45 -41 -42 -53 11 -52 74 2 128 -55 112 -117 -9 -38 -34 -47 -149
-57 -169 -14 -281 -64 -404 -182 -24 -22 -43 -43 -43 -48 0 -4 18 -10 40 -13
81 -11 139 -85 118 -149 -15 -43 -33 -51 -132 -58 -123 -10 -199 -46 -307
-148 -93 -87 -150 -165 -211 -287 -134 -267 -183 -637 -119 -901 36 -146 130
-394 164 -432 9 -10 17 -26 17 -35 0 -9 10 -25 22 -37 26 -24 15 -26 -25 -5
-22 11 -31 12 -41 3 -10 -10 -9 -16 5 -32 17 -18 17 -20 1 -32 -9 -7 -21 -14
-26 -14 -5 0 -40 32 -78 70 -56 57 -68 75 -63 93 5 16 4 18 -3 8 -19 -27 -109
164 -155 329 -28 103 -30 447 -3 620 64 412 206 810 401 1125 191 309 341 498
535 673 200 181 414 329 655 453 374 193 704 288 1155 332 82 8 394 6 495 -3z
m683 -620 c9 -5 53 -21 97 -36 171 -60 422 -218 400 -253 -3 -6 0 -9 7 -6 20
8 81 -59 83 -92 1 -15 3 -36 3 -45 1 -11 10 -18 22 -18 14 0 18 5 13 18 -5 15
-4 15 9 -2 12 -16 13 -24 2 -55 -19 -53 -18 -67 3 -50 14 12 16 12 8 0 -5 -10
-4 -12 4 -7 7 4 9 17 6 29 -5 17 -4 19 4 7 8 -11 11 -12 11 -2 0 7 5 10 11 6
8 -4 7 -9 -2 -15 -12 -8 -6 -13 12 -11 4 1 14 -16 24 -37 18 -40 13 -81 -8
-81 -24 0 -57 31 -57 53 0 18 2 19 10 7 8 -13 10 -13 10 2 0 24 -17 31 -28 12
-7 -13 -11 -10 -22 18 -7 18 -24 48 -37 66 -13 17 -22 36 -19 41 8 13 -4 41
-17 41 -7 0 -7 -4 1 -12 7 -7 12 -16 12 -21 0 -6 -26 17 -57 49 -86 88 -127
122 -203 165 -76 42 -206 89 -250 89 -23 0 -36 11 -66 53 -21 28 -41 54 -44
57 -3 3 -14 16 -25 29 l-20 24 43 -7 c24 -3 51 -10 60 -16z m725 -271 c84 -77
98 -102 73 -128 -15 -15 -19 -13 -44 19 -15 19 -53 64 -84 99 -31 36 -54 69
-52 73 12 18 36 4 107 -63z m-1945 -24 c34 -8 82 -25 105 -36 39 -20 40 -22
19 -30 -12 -5 -22 -10 -22 -12 0 -2 21 -12 48 -22 26 -10 81 -38 122 -64 117
-71 149 -67 176 26 l16 56 35 -54 c42 -67 63 -136 63 -206 l0 -53 -52 22 c-29
11 -96 32 -148 46 -133 34 -341 36 -483 3 -467 -107 -832 -370 -1081 -781
-135 -222 -228 -479 -278 -770 -21 -121 -17 -476 5 -580 35 -159 96 -305 186
-443 28 -43 51 -80 51 -82 0 -8 -83 27 -115 48 -16 11 -43 32 -58 46 -24 22
-29 23 -38 11 -9 -12 -10 -11 -5 4 5 13 -3 34 -24 62 -26 37 -58 100 -100 199
-5 11 -11 29 -13 40 -3 12 -5 6 -7 -15 -1 -29 -3 -32 -10 -15 -5 11 -7 36 -4
55 3 27 2 30 -5 15 -9 -20 -9 -20 -17 -1 -7 19 -8 19 -15 0 -4 -10 -5 -35 -2
-55 4 -28 1 -38 -12 -43 -14 -5 -15 -9 -5 -20 8 -11 8 -20 1 -35 -9 -16 -8
-22 6 -29 14 -9 14 -10 -5 -16 -30 -10 -28 -27 3 -22 20 4 26 0 31 -21 4 -16
2 -28 -7 -34 -12 -8 -11 -12 4 -23 9 -7 17 -23 17 -35 0 -20 -14 -26 -49 -22
-11 2 -11 0 0 -12 8 -8 16 -11 19 -7 3 5 23 11 45 14 22 3 32 3 23 0 -25 -8
-23 -44 2 -44 27 0 25 -28 -2 -40 -21 -8 -20 -8 7 -8 17 1 44 -2 60 -6 22 -6
26 -5 15 3 -13 9 -13 11 3 11 9 0 17 -5 17 -11 0 -7 8 -18 17 -25 10 -7 16
-15 13 -17 -9 -9 -120 15 -114 24 3 5 -2 6 -10 3 -8 -3 -28 1 -44 10 -35 18
-112 94 -112 111 0 6 -11 35 -25 63 -26 55 -31 77 -15 67 6 -4 7 1 3 11 -4 11
-8 13 -11 6 -2 -7 -8 -10 -12 -7 -5 3 -7 12 -3 20 3 8 1 15 -5 15 -12 0 -26
55 -23 90 1 21 0 22 -10 10 -10 -13 -10 -13 -6 0 2 8 7 26 11 40 7 24 7 25 -9
5 -16 -19 -16 -18 -11 20 5 29 4 35 -3 20 -5 -11 -10 -18 -10 -15 -1 3 -10 50
-21 105 -30 145 -37 437 -17 615 26 213 76 397 157 567 28 58 50 107 50 109 0
2 24 46 54 97 108 188 286 419 417 542 82 77 202 176 237 195 15 8 43 25 62
36 61 38 168 74 217 75 26 1 65 -6 87 -15 48 -20 126 -21 173 -1 59 25 93 20
134 -21 42 -41 63 -40 80 3 16 41 -12 120 -61 176 l-41 46 38 6 c21 4 45 8 53
10 43 9 183 3 238 -10z m1422 -125 c33 -17 86 -56 118 -88 178 -173 188 -432
25 -613 -104 -115 -293 -166 -433 -118 l-31 11 69 72 c37 39 83 97 101 128 28
51 34 56 54 49 13 -5 35 -7 50 -4 31 6 77 56 77 83 0 35 -24 73 -54 85 l-30
13 -1 134 c0 83 -7 160 -17 206 -19 86 -17 87 72 42z m-2425 -48 c-6 -5 -53
-38 -106 -74 -95 -64 -97 -65 -113 -46 -13 15 -15 23 -5 34 20 24 170 94 202
94 18 0 27 -4 22 -8z m2890 -12 c3 -5 1 -10 -4 -10 -6 0 -11 5 -11 10 0 6 2
10 4 10 3 0 8 -4 11 -10z m312 -1238 c5 -1517 8 -1682 28 -1792 30 -172 31
-201 1 -232 -34 -37 -59 -35 -92 8 l-27 35 -28 -44 c-61 -98 -144 -141 -269
-140 -47 1 -95 5 -108 10 -21 8 -18 12 50 55 93 59 178 136 230 206 90 122
162 335 175 520 6 89 -6 109 -26 43 -22 -75 -100 -216 -154 -279 -168 -199
-364 -258 -577 -175 -24 10 -24 11 20 33 98 50 252 181 341 291 113 139 234
353 294 519 32 89 77 279 68 293 -3 5 -22 -17 -42 -50 -64 -100 -174 -186
-289 -224 -55 -18 -79 -21 -156 -16 -96 7 -136 14 -136 27 0 4 37 29 83 54
195 109 402 343 477 537 37 96 72 224 68 246 -2 10 -14 -2 -36 -35 -43 -67
-135 -150 -198 -179 -55 -25 -140 -44 -170 -38 -75 14 -134 29 -134 34 1 3 40
29 87 56 104 60 238 187 305 290 26 39 62 109 82 157 35 84 73 234 63 244 -3
3 -19 -14 -35 -38 -67 -96 -157 -158 -243 -165 -59 -6 -109 1 -109 15 0 4 13
15 29 25 42 25 146 132 198 204 53 74 126 229 178 376 21 59 40 105 44 102 3
-3 7 -441 8 -973z m-2210 890 c-59 -55 -67 -59 -123 -65 -115 -12 -293 -90
-467 -204 -119 -79 -194 -139 -306 -247 -49 -47 -77 -68 -66 -51 109 178 340
387 535 485 152 76 340 133 457 139 l32 1 -62 -58z m456 -39 c4 -3 -26 -17
-67 -30 -42 -13 -81 -29 -88 -36 -7 -7 -24 -18 -38 -25 -22 -11 -22 -11 -2 -6
29 7 28 2 -11 -40 -46 -48 -75 -105 -60 -114 6 -4 19 -40 27 -80 18 -87 54
-168 97 -223 17 -21 29 -47 27 -56 -2 -10 13 -44 35 -76 74 -112 96 -184 57
-194 -22 -6 -24 -28 -11 -98 l7 -40 8 35 c17 69 18 1 1 -77 -22 -109 -29 -247
-16 -318 6 -33 30 -97 53 -142 24 -46 62 -119 84 -163 65 -126 80 -248 48
-395 -28 -133 -29 -155 -8 -155 38 0 121 48 158 91 63 72 89 140 94 246 5 110
-14 179 -88 320 -83 156 -97 240 -61 346 42 120 101 190 197 233 59 26 140 40
178 30 30 -7 35 -26 8 -26 -38 0 -123 -53 -175 -110 -84 -90 -101 -134 -104
-259 -2 -74 1 -113 11 -133 8 -15 18 -54 21 -86 13 -109 29 -124 40 -37 3 30
10 57 15 60 31 19 111 -231 124 -395 3 -30 -2 -110 -11 -178 -8 -68 -12 -126
-9 -129 3 -4 6 1 6 10 0 26 16 28 18 1 1 -13 -3 -24 -8 -24 -5 0 -14 -17 -20
-38 -23 -86 -150 -242 -250 -308 -88 -58 -27 -53 90 7 87 45 129 82 199 174
54 70 68 72 25 4 -87 -138 -272 -264 -433 -295 -102 -20 -104 -20 -121 -27 -8
-3 -36 -7 -62 -10 -35 -3 -45 -1 -41 9 2 7 11 10 19 7 8 -3 14 0 14 7 0 6 -4
9 -9 5 -6 -3 -14 2 -19 11 -9 15 -10 15 -16 -4 -4 -12 -11 -22 -16 -22 -10 0
32 119 55 154 23 34 11 49 -36 44 l-39 -4 0 47 c0 56 -33 168 -58 199 l-18 23
-27 -63 c-22 -50 -46 -153 -47 -203 0 -5 -20 -5 -45 -1 -25 3 -45 4 -45 1 0
-3 15 -38 34 -79 18 -40 37 -88 41 -105 8 -39 0 -41 -103 -19 -37 8 -102 21
-144 30 -77 15 -188 61 -242 100 -61 45 -167 152 -195 195 -42 66 -51 107 -10
46 62 -94 169 -189 263 -235 80 -39 116 -45 116 -21 0 6 -19 20 -41 32 -88 44
-254 248 -275 337 -4 15 -10 32 -15 37 -4 6 -15 53 -24 105 -16 93 -15 179 4
247 7 25 9 22 16 -27 5 -30 8 -80 8 -110 l-1 -55 8 50 c5 28 6 74 3 104 -4 39
-2 52 6 47 7 -5 11 3 11 21 0 15 7 46 14 68 16 45 10 67 -11 40 -16 -23 -17
-14 -2 19 7 14 16 23 20 20 5 -3 9 4 9 16 0 11 9 38 20 60 11 22 20 47 20 57
0 29 17 2 33 -52 8 -27 20 -50 27 -50 34 0 72 287 51 379 -17 71 -59 152 -109
208 -69 76 -39 62 47 -22 74 -73 100 -112 125 -186 15 -47 23 -165 12 -209 -2
-11 -5 -23 -5 -26 -1 -4 -11 -19 -23 -35 -12 -15 -23 -33 -24 -40 -1 -7 -15
-43 -30 -81 -26 -62 -29 -79 -29 -188 0 -103 3 -127 22 -168 29 -62 107 -144
160 -169 40 -19 59 -48 31 -48 -8 0 -9 -3 -2 -10 15 -15 44 -1 54 25 6 16 1
51 -16 111 -17 63 -24 114 -24 177 0 138 28 226 121 380 27 45 49 86 49 90 0
5 6 23 14 40 44 99 57 229 32 325 -16 65 -81 174 -144 244 -13 14 -21 31 -18
37 5 7 1 8 -10 4 -13 -5 -16 -3 -11 10 4 12 2 14 -10 10 -13 -5 -15 -2 -9 13
6 15 5 16 -5 7 -9 -9 -5 -20 19 -47 30 -35 48 -73 39 -83 -15 -15 -91 42 -130
97 -9 13 -17 19 -17 13 0 -12 35 -57 83 -105 41 -43 76 -119 81 -179 l5 -54
-28 60 c-15 33 -43 80 -62 105 -19 25 -39 52 -44 60 -8 13 -7 13 8 1 22 -18
22 0 0 20 -29 26 -53 58 -54 72 0 9 -2 9 -5 0 -3 -7 5 -26 17 -42 12 -17 21
-33 18 -35 -6 -6 -45 54 -54 83 -4 13 -3 21 1 18 5 -3 8 9 8 26 -3 56 -6 63
-14 27 -6 -30 -7 -26 -7 25 -1 70 14 130 35 148 13 10 15 8 9 -12 -8 -31 45
-124 111 -193 26 -27 47 -54 47 -58 0 -5 7 -15 15 -22 12 -11 12 -11 1 5 -9
11 -10 17 -2 17 6 0 11 -5 11 -10 0 -6 12 -20 26 -33 37 -31 108 -151 134
-224 22 -61 40 -81 40 -45 0 9 4 23 9 31 6 9 7 -9 4 -50 -8 -96 14 -63 39 57
25 125 20 258 -11 325 -21 44 -110 159 -98 127 4 -10 5 -18 3 -18 -13 0 -111
139 -137 194 -30 63 -31 72 -27 159 5 107 24 152 96 229 49 52 116 92 179 107
46 11 147 14 156 4z m1967 -375 c0 -22 -50 14 -69 49 -23 45 -9 46 29 3 22
-25 40 -48 40 -52z m-2861 -25 c-7 -10 -30 -36 -49 -58 -57 -64 -113 -151
-180 -281 -61 -119 -62 -120 -76 -249 -7 -72 -14 -179 -14 -239 l0 -108 -40
-48 c-69 -83 -93 -149 -98 -272 -4 -104 -3 -109 29 -178 18 -39 39 -75 47 -79
14 -8 13 -17 -6 -75 -12 -37 -22 -75 -22 -86 0 -10 -4 -22 -10 -25 -5 -3 -10
1 -10 9 0 9 -4 16 -9 16 -15 0 -90 163 -105 230 -49 214 -41 476 22 678 13 42
18 50 24 35 6 -12 6 -9 3 11 -7 33 31 141 74 208 16 25 32 54 35 64 3 10 16
30 27 44 22 26 21 19 -5 -42 -30 -71 -7 -38 36 50 63 131 117 209 199 289 108
104 160 147 128 106z m1385 -121 c92 -88 164 -129 246 -138 60 -6 136 13 179
47 17 14 28 16 41 9 16 -9 17 -14 5 -53 -17 -57 -9 -92 27 -122 45 -38 108
-35 142 6 l27 31 39 -27 c45 -31 44 -39 -19 -105 -34 -36 -42 -40 -89 -40 -28
0 -71 9 -97 20 -26 11 -67 20 -92 20 -36 0 -52 6 -78 29 -50 44 -138 73 -225
76 l-75 3 -7 61 c-8 73 -45 158 -94 218 -57 69 -18 50 70 -35z m-2804 -12
c-65 -128 -141 -378 -181 -590 -16 -87 -23 -173 -28 -355 l-6 -240 -17 70
c-43 175 -46 415 -7 610 30 150 115 361 184 460 47 67 76 105 81 105 2 0 -9
-27 -26 -60z m2503 -52 c29 -21 57 -66 57 -93 0 -12 -15 -3 -50 28 -27 24 -65
52 -85 61 -19 9 -35 22 -35 27 0 16 81 0 113 -23z m-2893 -314 c-51 -197 -72
-531 -46 -734 25 -198 83 -397 160 -548 36 -71 35 -90 -4 -62 -16 11 -47 39
-69 60 -38 38 -41 39 -57 22 -16 -15 -17 -15 -12 -1 4 9 1 23 -5 30 -10 11 -9
11 6 0 24 -18 22 -10 -13 59 -120 238 -146 690 -56 988 26 84 105 276 112 269
2 -2 -5 -39 -16 -83z m4726 -40 c41 -36 74 -69 74 -74 0 -4 -7 -10 -15 -13
-17 -7 -119 83 -141 124 -24 47 2 35 82 -37z m-3595 -95 c-58 -281 -29 -548
95 -876 57 -151 60 -163 43 -163 -16 0 -89 63 -89 78 0 6 -4 12 -9 12 -4 0 -6
-11 -3 -25 2 -14 8 -23 12 -20 4 2 17 -7 28 -20 12 -14 26 -25 31 -25 5 0 11
-18 13 -39 3 -35 1 -41 -20 -46 -16 -4 -22 -11 -18 -21 5 -12 2 -12 -16 -3
-17 9 -18 13 -7 21 12 8 11 9 -1 5 -8 -2 -14 -13 -13 -23 1 -15 -2 -14 -17 6
-11 14 -17 33 -14 42 4 13 1 16 -9 12 -8 -3 -21 6 -31 20 -20 32 -14 34 14 4
11 -12 20 -17 20 -11 0 5 -9 18 -20 28 -11 10 -20 25 -21 34 0 11 -2 12 -6 3
-4 -10 -9 -7 -20 8 -8 12 -12 24 -9 27 3 3 -3 18 -14 33 -11 15 -27 61 -36
101 -9 41 -21 91 -27 112 -5 20 -7 40 -4 44 4 3 7 -4 7 -17 0 -23 0 -23 15 -4
14 18 14 18 15 -11 1 -16 4 -24 7 -17 9 24 19 12 16 -20 -3 -28 -2 -30 6 -11
7 15 4 51 -11 120 -17 83 -19 122 -15 258 6 166 16 220 73 378 49 138 62 141
35 6z m632 54 c-7 -2 -21 -2 -30 0 -10 3 -4 5 12 5 17 0 24 -2 18 -5z m1837
-288 c90 -110 132 -187 134 -243 2 -54 -18 -48 -43 12 -13 33 -54 90 -104 148
-98 112 -129 164 -107 178 8 5 20 9 25 9 6 0 48 -47 95 -104z m-228 -152 c11
-12 18 -28 16 -35 -6 -16 -48 50 -47 72 0 13 1 13 6 0 3 -8 14 -25 25 -37z
m1301 -13 c36 -40 49 -76 25 -68 -15 5 -78 85 -78 99 0 18 16 8 53 -31z m497
4 c0 -19 -5 -25 -17 -22 -22 4 -30 38 -12 49 19 11 29 2 29 -27z m-3461 -5
c-16 -31 -35 -49 -43 -42 -3 4 -6 -1 -6 -10 0 -9 -7 -17 -15 -17 -8 0 -19 -9
-25 -19 -13 -25 -13 -31 0 -31 6 0 10 8 10 17 0 9 3 14 6 10 9 -9 -7 -68 -17
-61 -5 3 -9 -2 -9 -10 0 -9 7 -16 15 -16 8 0 15 -8 15 -17 1 -30 35 -64 71
-72 l34 -7 -33 -18 c-84 -44 -178 38 -142 125 7 16 17 26 22 23 6 -4 8 1 4 14
-5 15 8 37 56 91 62 70 81 83 57 40z m1761 -108 c0 -11 5 -21 12 -23 21 -7 16
-113 -7 -138 -34 -37 -51 -42 -92 -24 -38 16 -38 16 -13 25 44 17 65 57 65
128 0 46 -5 69 -17 84 -10 11 -18 25 -18 31 1 19 70 -63 70 -83z m332 -444 c6
-10 18 -125 20 -201 1 -37 -4 -44 -73 -107 -41 -38 -76 -68 -79 -69 -3 0 -5
66 -5 147 0 135 -3 154 -26 215 -23 58 -24 68 -11 81 12 13 24 11 91 -20 42
-19 79 -40 83 -46z m1733 1 c-10 -46 -9 -45 -73 -63 -65 -19 -191 -79 -272
-130 -60 -37 -127 -75 -133 -75 -2 0 -17 18 -33 41 -33 48 -41 39 111 114 107
52 240 103 340 130 68 19 67 19 60 -17z m-4914 -91 c-10 -9 -11 -8 -5 6 3 10
9 15 12 12 3 -3 0 -11 -7 -18z m2689 -30 c0 -18 -2 -19 -10 -7 -13 20 -13 43
0 35 6 -3 10 -16 10 -28z m-3405 -46 c3 -5 1 -12 -5 -16 -5 -3 -10 1 -10 9 0
18 6 21 15 7z m3392 -23 c-3 -8 -6 -5 -6 6 -1 11 2 17 5 13 3 -3 4 -12 1 -19z
m-2037 -9 c0 -11 -4 -18 -10 -14 -5 3 -7 12 -3 20 7 21 13 19 13 -6z m3402
-41 c25 -35 58 -74 72 -87 31 -29 34 -51 7 -51 -21 0 -79 60 -122 128 -58 92
-24 100 43 10z m-4604 4 c2 -7 -2 -10 -12 -6 -9 3 -16 11 -16 16 0 13 23 5 28
-10z m1182 6 c0 -6 3 -9 6 -5 4 3 13 -1 21 -9 9 -9 23 -12 36 -8 17 5 18 4 6
-9 -9 -9 -18 -12 -23 -6 -15 14 -26 11 -26 -6 0 -8 5 -15 10 -15 6 0 10 -5 10
-10 0 -15 -32 7 -55 38 -15 21 -15 24 -2 13 19 -15 23 -1 5 17 -9 9 -9 12 0
12 7 0 12 -5 12 -12z m-1275 -27 c-3 -5 6 -18 20 -29 35 -28 31 -35 -10 -15
-25 12 -32 19 -23 26 9 6 4 7 -12 3 -24 -5 -24 -4 -6 9 22 17 40 20 31 6z
m112 -7 c-3 -3 -12 -4 -19 -1 -8 3 -5 6 6 6 11 1 17 -2 13 -5z m-261 -173
c178 -99 381 -160 608 -182 67 -6 148 -14 181 -18 l60 -7 -55 -14 c-82 -22
-374 -20 -460 3 -182 50 -346 123 -485 218 -69 47 -74 53 -84 100 -6 27 -11
54 -11 59 0 6 39 -19 86 -53 47 -35 119 -83 160 -106z m233 140 c-6 -2 -18 4
-27 13 -15 15 -15 15 10 4 15 -7 23 -15 17 -17z m1310 -35 c-9 -10 -29 1 -29
17 0 7 4 6 10 -3 7 -11 10 -7 11 20 l1 35 7 -30 c4 -16 4 -34 0 -39z m4125 7
c-9 -65 -16 -76 -63 -99 -45 -21 -50 -30 -23 -38 9 -3 5 -4 -10 -2 -16 2 -28
-1 -28 -5 0 -5 6 -9 13 -9 6 -1 0 -8 -15 -16 -30 -16 -52 -9 -103 31 -20 16
-19 17 25 55 36 31 194 130 208 130 2 0 0 -21 -4 -47z m-4166 20 c-1 -10 1
-24 6 -31 7 -11 4 -11 -12 -1 -12 7 -17 19 -14 31 6 23 24 24 20 1z m72 -29
c0 -14 -4 -23 -9 -20 -5 3 -7 15 -4 26 7 28 13 25 13 -6z m-1340 6 c0 -5 -2
-10 -4 -10 -3 0 -8 5 -11 10 -3 6 -1 10 4 10 6 0 11 -4 11 -10z m37 4 c-3 -3
-12 -4 -19 -1 -8 3 -5 6 6 6 11 1 17 -2 13 -5z m1287 -39 c11 -8 15 -15 10
-15 -6 0 -19 7 -30 15 -10 8 -14 14 -9 14 6 0 19 -6 29 -14z m-638 -44 c-12
-19 -24 -12 -19 10 4 13 9 17 15 11 6 -6 7 -15 4 -21z m4154 -87 c0 -24 -33
-15 -72 19 -39 34 -47 52 -25 60 15 5 97 -61 97 -79z m-5103 -156 c255 -161
570 -242 810 -209 140 20 192 38 388 136 105 52 219 102 255 111 112 28 232 5
334 -65 26 -18 46 -35 44 -37 -2 -2 -20 1 -39 6 -20 6 -58 11 -85 11 -72 2
-193 -4 -166 -9 17 -3 3 -13 -60 -44 -46 -23 -102 -54 -125 -70 -122 -83 -315
-156 -472 -179 -162 -23 -407 2 -551 57 -96 36 -112 51 -73 65 10 4 -5 5 -32
4 -45 -2 -59 3 -119 42 -38 24 -66 47 -62 50 3 3 12 0 21 -7 9 -7 18 -11 21
-8 4 5 -21 22 -105 73 -9 6 -27 21 -40 33 -12 13 -26 21 -29 17 -4 -3 0 -11 8
-16 13 -9 13 -10 0 -7 -16 4 -45 57 -60 108 l-9 32 27 -18 c15 -10 68 -44 119
-76z m2178 -307 c239 -88 312 -120 289 -128 -5 -2 -68 17 -139 43 -72 25 -179
63 -240 84 -102 35 -185 68 -194 75 -7 8 12 26 23 22 6 -2 124 -46 261 -96z
m1405 85 c0 -7 -30 -25 -67 -39 -38 -14 -122 -47 -188 -72 -182 -72 -278 -105
-300 -105 -20 1 -20 1 -1 15 11 8 117 53 235 100 322 126 321 126 321 101z
m310 -53 c54 -55 105 -204 55 -163 -10 8 -32 1 -92 -28 -43 -22 -88 -43 -101
-47 -20 -6 -23 -4 -20 15 2 18 21 30 88 57 97 40 103 44 94 66 -9 24 -33 25
-89 5 -106 -39 -133 -58 -151 -105 -16 -41 -16 -47 -1 -79 15 -30 21 -34 54
-34 44 0 34 -13 -22 -27 -22 -6 -49 -14 -60 -18 -16 -7 -18 -6 -7 6 16 18 15
54 -2 69 -12 9 -28 7 -78 -11 -35 -13 -72 -28 -83 -35 -30 -18 -155 -57 -162
-50 -3 3 25 20 63 37 38 17 97 44 132 60 61 28 79 53 47 65 -21 9 -69 -6 -220
-65 -139 -55 -216 -78 -196 -58 21 21 11 25 -35 15 -45 -10 -164 5 -164 21 0
3 84 37 188 76 103 38 297 113 432 167 135 53 256 97 269 98 14 0 38 -15 61
-37z m-2063 -32 c232 -93 732 -265 1358 -468 268 -87 366 -116 453 -133 67
-14 78 -24 35 -33 -71 -15 -149 -99 -179 -192 -8 -27 -17 -56 -20 -63 -3 -11
-7 -11 -19 1 -8 8 -66 32 -129 52 -64 21 -113 41 -111 45 3 4 46 -5 97 -21
116 -36 138 -37 138 -5 0 14 -5 28 -10 31 -6 4 -140 51 -298 105 -356 121
-333 112 -382 156 -29 26 -44 51 -56 89 -12 45 -20 55 -46 64 -17 6 -33 11
-36 11 -11 0 11 -89 33 -139 28 -59 30 -71 14 -71 -5 0 -17 17 -26 38 -19 46
-20 47 -123 78 -47 14 -94 29 -105 34 -11 6 -119 43 -240 83 -121 41 -238 82
-259 91 -22 9 -43 13 -47 9 -15 -15 -19 -70 -6 -71 29 -2 121 -40 125 -50 2
-7 -32 1 -80 19 -45 17 -105 37 -133 44 -43 12 -46 14 -18 14 44 1 74 39 64
84 -13 56 -31 78 -84 102 -65 30 -142 49 -162 41 -8 -3 -15 -14 -15 -24 0 -20
10 -26 110 -58 61 -20 90 -40 90 -61 0 -10 -6 -12 -22 -7 -45 14 -103 43 -88
43 8 1 2 8 -13 16 -15 8 -33 12 -41 9 -7 -3 -24 0 -38 5 -22 8 -29 6 -41 -12
-8 -13 -17 -32 -20 -42 -4 -19 -5 -19 -6 1 -3 64 62 204 107 228 44 24 73 19
229 -43z m-1695 -175 c146 -65 330 -101 458 -91 l75 6 29 -42 c48 -69 213
-235 336 -338 356 -298 804 -506 1261 -585 274 -47 634 -48 899 -1 252 44 415
99 696 235 231 111 410 228 599 391 95 81 268 255 301 302 l19 27 160 4 c173
3 221 13 361 77 37 16 69 27 72 25 17 -17 -147 -283 -284 -461 -91 -119 -336
-362 -482 -479 -148 -118 -263 -194 -427 -284 -480 -264 -1001 -394 -1515
-379 -231 7 -388 26 -605 73 -769 170 -1428 611 -1853 1241 -54 80 -162 274
-162 290 0 17 -2 17 62 -11z m1011 -116 c14 -11 39 -45 56 -75 39 -69 64 -85
159 -101 73 -13 162 -43 162 -55 0 -9 -234 -79 -264 -79 -40 0 -97 33 -144 84
-47 51 -52 62 -21 45 12 -6 30 -9 40 -6 11 3 25 0 32 -7 23 -23 55 -36 89 -35
l33 1 -34 11 c-22 7 -53 34 -90 78 -59 71 -90 89 -152 89 -76 0 -89 19 -31 49
51 27 131 28 165 1z m3337 4 c22 -9 40 -19 40 -23 0 -13 -49 -50 -52 -39 -5
15 -94 -1 -112 -21 -9 -9 -31 -36 -49 -61 -18 -25 -43 -50 -56 -56 -27 -14
-49 -34 -35 -34 5 0 35 6 67 14 31 7 57 11 57 8 0 -2 7 1 15 8 8 7 15 8 15 3
0 -12 -46 -55 -95 -87 -33 -23 -46 -26 -80 -20 -48 7 -227 63 -238 74 -12 10
98 47 163 55 81 9 110 31 156 118 38 74 115 97 204 61z m-2319 -120 c30 -9 58
-20 64 -25 5 -5 20 -10 35 -10 23 -2 24 -2 2 -6 -20 -4 -182 43 -182 53 0 8
27 4 81 -12z m214 -72 c80 -28 129 -51 110 -52 -21 0 -171 53 -185 66 -19 18
-18 18 75 -14z m213 -76 c22 -8 43 -12 46 -9 3 3 12 0 21 -7 8 -7 21 -10 29
-7 17 7 54 -18 43 -29 -8 -8 -175 44 -183 58 -7 11 -3 10 44 -6z m-610 -59
c36 -13 60 -27 58 -33 -3 -8 7 -10 35 -7 55 8 48 -9 -16 -37 -38 -17 -55 -30
-55 -42 0 -30 26 -32 96 -9 35 11 79 21 97 20 31 0 30 -1 -18 -20 -99 -40
-134 -60 -129 -75 14 -46 10 -44 61 -29 49 15 73 12 32 -4 -13 -5 -44 -17 -68
-27 -42 -17 -44 -17 -57 1 -14 18 -14 18 -15 -1 0 -10 -6 -1 -13 21 -39 123
-112 204 -201 223 l-40 8 25 14 c30 17 97 29 125 23 11 -3 48 -14 83 -26z
m843 -32 c34 -16 34 -16 4 -10 -16 4 -34 11 -39 16 -14 13 -3 11 35 -6z m74
-25 c13 -6 15 -9 5 -9 -8 0 -22 4 -30 9 -18 12 -2 12 25 0z m165 -59 c47 -16
78 -30 70 -30 -18 -1 -122 34 -147 48 -28 16 -14 13 77 -18z m-1249 -37 c40
-39 67 -102 72 -166 1 -21 -2 -36 -8 -35 -5 1 -9 14 -7 30 2 16 -2 27 -9 27
-6 0 -9 8 -6 20 3 11 0 18 -6 17 -6 -1 -13 8 -15 19 -5 36 -37 56 -95 61 -52
4 -55 3 -81 -29 l-26 -33 0 40 c1 99 102 126 181 49z m1987 30 c23 -16 47 -62
38 -72 -3 -3 -12 1 -21 8 -10 8 -31 10 -68 6 -43 -6 -61 -14 -85 -39 -26 -27
-62 -100 -62 -127 0 -14 64 22 83 47 33 41 47 52 61 47 36 -14 -41 -92 -96
-98 -13 -1 -30 -6 -37 -10 -7 -5 -17 -4 -23 2 -15 15 9 135 36 175 46 68 125
96 174 61z m-2064 -128 c-1 -9 4 -16 10 -16 7 0 31 -18 54 -40 40 -39 36 -52
-11 -28 -12 6 -29 14 -37 18 -18 8 -51 70 -44 82 9 14 29 3 28 -16z m2026 14
c0 -5 -4 -10 -10 -10 -5 0 -10 5 -10 10 0 6 5 10 10 10 6 0 10 -4 10 -10z
m-1048 -180 c51 1 108 2 126 3 18 0 37 -4 44 -11 20 -20 -68 -34 -186 -30
-117 4 -189 23 -151 39 11 4 32 5 47 3 15 -3 69 -5 120 -4z m308 -50 c0 -11
-21 -11 -65 0 -27 7 -25 8 18 9 26 0 47 -3 47 -9z m-112 -7 c-10 -2 -26 -2
-35 0 -10 3 -2 5 17 5 19 0 27 -2 18 -5z"/>
<path d="M2430 4632 c0 -5 7 -15 15 -22 8 -7 15 -9 15 -6 0 4 -7 14 -15 22 -8
9 -15 11 -15 6z"/>
<path d="M2360 4603 c0 -7 4 -15 10 -18 11 -7 55 14 46 22 -3 3 -12 1 -19 -5
-10 -9 -17 -8 -25 0 -9 9 -12 9 -12 1z"/>
<path d="M2416 4574 c-3 -8 -10 -12 -16 -9 -5 3 -7 0 -4 -9 5 -12 9 -11 25 5
21 21 24 29 10 29 -5 0 -12 -7 -15 -16z"/>
<path d="M2425 4540 c-3 -5 -2 -10 4 -10 5 0 13 5 16 10 3 6 2 10 -4 10 -5 0
-13 -4 -16 -10z"/>
<path d="M2445 4520 c-3 -5 -2 -10 4 -10 5 0 13 5 16 10 3 6 2 10 -4 10 -5 0
-13 -4 -16 -10z"/>
<path d="M6624 7205 c1 -8 6 -18 11 -22 4 -4 5 -2 1 5 -4 6 -2 12 4 12 6 0 8
5 5 10 -9 15 -24 12 -21 -5z"/>
<path d="M6650 7115 c0 -3 8 -14 18 -25 17 -18 17 -18 19 7 1 19 -1 22 -8 12
-6 -10 -9 -10 -9 -1 0 6 -4 12 -10 12 -5 0 -10 -2 -10 -5z"/>
<path d="M3206 4812 c-2 -4 -1 -14 5 -22 7 -12 9 -10 9 8 0 23 -5 28 -14 14z"/>
<path d="M3086 4665 c8 -37 14 -45 14 -19 0 10 -5 26 -10 34 -8 11 -9 7 -4
-15z"/>
<path d="M3070 4590 c0 -5 5 -10 10 -10 6 0 10 5 10 10 0 6 -4 10 -10 10 -5 0
-10 -4 -10 -10z"/>
<path d="M3101 4524 c0 -11 3 -14 6 -6 3 7 2 16 -1 19 -3 4 -6 -2 -5 -13z"/>
<path d="M3150 4383 c0 -5 11 -20 25 -33 14 -13 25 -19 25 -13 0 5 -11 20 -25
33 -14 13 -25 19 -25 13z"/>
<path d="M5520 4444 c0 -11 -6 -14 -21 -9 -15 5 -19 4 -15 -4 11 -17 41 -13
67 9 l24 19 -27 1 c-19 0 -28 -5 -28 -16z"/>
<path d="M4938 3963 c7 -3 16 -2 19 1 4 3 -2 6 -13 5 -11 0 -14 -3 -6 -6z"/>
<path d="M3628 4861 c5 -23 6 -24 13 -6 11 29 11 32 -4 32 -9 0 -12 -9 -9 -26z"/>
<path d="M3662 4865 c0 -16 2 -22 5 -12 2 9 2 23 0 30 -3 6 -5 -1 -5 -18z"/>
<path d="M3671 4813 c-10 -26 -10 -27 4 -9 8 11 15 23 15 28 0 15 -7 8 -19
-19z"/>
<path d="M3710 4771 c0 -5 5 -13 10 -16 6 -3 10 -2 10 4 0 5 -4 13 -10 16 -5
3 -10 2 -10 -4z"/>
<path d="M3650 4750 c0 -5 5 -10 11 -10 5 0 7 5 4 10 -3 6 -8 10 -11 10 -2 0
-4 -4 -4 -10z"/>
<path d="M3710 4730 c0 -5 5 -10 11 -10 5 0 7 5 4 10 -3 6 -8 10 -11 10 -2 0
-4 -4 -4 -10z"/>
<path d="M3665 4700 c-3 -5 -1 -10 4 -10 6 0 11 5 11 10 0 6 -2 10 -4 10 -3 0
-8 -4 -11 -10z"/>
<path d="M3770 4655 c0 -8 5 -15 10 -15 6 0 10 7 10 15 0 8 -4 15 -10 15 -5 0
-10 -7 -10 -15z"/>
<path d="M3740 4620 c6 -12 8 -29 5 -40 -3 -10 -2 -21 2 -23 8 -5 9 15 5 66
-1 9 -7 17 -12 17 -7 0 -7 -7 0 -20z"/>
<path d="M3780 4600 c0 -11 5 -20 10 -20 6 0 10 9 10 20 0 11 -4 20 -10 20 -5
0 -10 -9 -10 -20z"/>
<path d="M3835 4012 c-6 -5 -41 -22 -80 -38 -38 -16 -81 -35 -95 -42 l-25 -14
27 6 c15 3 56 20 91 36 36 17 70 30 75 30 5 0 23 7 38 15 l29 15 -25 0 c-15 0
-30 -4 -35 -8z"/>
<path d="M2517 3909 c7 -7 15 -10 18 -7 3 3 -2 9 -12 12 -14 6 -15 5 -6 -5z"/>
<path d="M3478 3853 c7 -3 16 -2 19 1 4 3 -2 6 -13 5 -11 0 -14 -3 -6 -6z"/>
<path d="M2673 3833 c9 -2 17 -8 17 -11 0 -4 19 -8 43 -8 37 -1 39 0 17 8 -14
6 -41 12 -60 13 -19 2 -27 1 -17 -2z"/>
<path d="M2798 3803 c7 -3 16 -2 19 1 4 3 -2 6 -13 5 -11 0 -14 -3 -6 -6z"/>
<path d="M4303 3585 c-7 -19 6 -29 77 -59 65 -27 331 -116 347 -116 10 0 13 9
11 27 -3 25 -14 30 -183 88 -224 78 -243 82 -252 60z"/>
<path d="M4820 3416 c0 -48 9 -56 62 -56 27 0 30 3 23 23 -4 12 -7 30 -8 39
-1 9 -3 15 -5 13 -3 -2 -14 2 -26 10 -35 25 -46 19 -46 -29z"/>
<path d="M5150 3341 c0 -36 19 -69 55 -96 23 -18 136 -61 331 -126 162 -55
301 -99 309 -99 15 0 29 30 18 40 -14 12 -189 76 -391 143 -191 64 -252 93
-252 123 0 8 -12 19 -26 24 -36 14 -44 13 -44 -9z"/>
<path d="M5480 3244 c0 -7 52 -25 57 -20 2 2 -10 8 -26 14 -17 6 -31 9 -31 6z"/>
<path d="M2920 3362 c-86 -38 -113 -123 -67 -212 22 -45 58 -73 110 -85 26 -7
27 -5 27 29 0 24 -5 36 -14 36 -23 0 -66 59 -66 90 0 41 44 74 89 66 48 -7 73
-35 73 -80 0 -30 5 -40 25 -49 32 -14 43 2 43 65 0 39 -6 54 -31 83 -18 20
-45 43 -60 51 -29 14 -102 18 -129 6z"/>
<path d="M7101 3284 c-40 -41 -71 -79 -69 -83 5 -13 211 -202 217 -199 4 2 41
39 83 83 l78 81 -27 26 -26 26 -53 -56 c-50 -54 -53 -56 -70 -40 -17 17 -17
20 20 57 40 41 43 65 9 78 -12 5 -28 -6 -55 -36 -32 -36 -40 -41 -53 -31 -22
18 -19 33 16 66 47 44 54 62 33 85 -9 10 -20 19 -24 19 -4 0 -40 -34 -79 -76z"/>
<path d="M6907 3113 l-26 -28 30 -89 c17 -48 29 -90 26 -92 -2 -3 -43 17 -89
44 l-85 48 -37 -31 -38 -31 114 -53 c62 -29 130 -63 150 -77 44 -28 46 -29 75
-6 l23 17 -48 159 c-26 88 -52 161 -58 163 -5 2 -22 -9 -37 -24z"/>
<path d="M3305 3081 c-6 -5 -70 -35 -143 -67 l-133 -58 35 -35 c28 -28 38 -33
48 -23 18 18 33 15 64 -12 16 -14 40 -34 54 -44 21 -17 23 -23 12 -46 -10 -23
-9 -28 24 -52 19 -15 36 -25 38 -23 1 2 11 41 20 86 10 44 26 110 37 145 10
34 19 72 19 84 0 37 -51 68 -75 45z m-25 -135 c-6 -20 -15 -36 -20 -36 -9 0
-40 28 -40 36 0 7 64 44 68 39 2 -2 -1 -20 -8 -39z"/>
<path d="M3548 2848 c-19 -24 -60 -76 -92 -117 l-59 -73 29 -24 c30 -24 44
-29 44 -16 0 4 23 33 50 65 l50 59 0 -100 c0 -136 4 -139 117 -73 48 28 89 49
91 47 2 -2 -8 -41 -22 -86 -14 -44 -26 -83 -26 -84 0 -6 60 -29 64 -25 4 4 93
231 103 261 3 12 -5 23 -27 36 l-31 20 -67 -37 c-37 -20 -79 -45 -94 -55 l-28
-18 0 110 c0 108 -1 111 -26 131 -15 12 -30 21 -35 21 -4 0 -23 -19 -41 -42z"/>
<path d="M6538 2827 c-25 -20 -27 -26 -19 -57 6 -19 17 -87 26 -150 22 -150
17 -141 58 -122 31 16 34 20 30 53 -5 33 -2 38 46 74 l52 37 24 -22 25 -23 40
28 c22 15 40 29 40 30 0 9 -279 176 -291 175 -2 -1 -16 -11 -31 -23z m103
-106 l24 -20 -22 -22 c-26 -27 -28 -26 -37 24 -8 42 1 46 35 18z"/>
<path d="M6322 2717 c-25 -15 -32 -25 -28 -41 2 -11 8 -55 12 -96 l7 -75 -74
66 c-64 57 -77 65 -98 58 -23 -9 -23 -11 -16 -102 l7 -92 -71 69 -70 69 -42
-19 -42 -19 128 -121 c108 -103 131 -121 149 -115 19 7 21 17 24 100 1 50 5
91 9 91 3 0 34 -25 68 -55 66 -58 80 -63 109 -42 16 12 16 21 -5 172 -12 88
-24 163 -28 166 -3 4 -21 -3 -39 -14z"/>
<path d="M4049 2617 c-7 -11 -31 -78 -54 -148 l-43 -127 25 -11 c43 -20 60
-14 67 24 8 41 19 50 46 35 30 -16 94 -16 123 -1 37 20 61 71 53 113 -9 50
-39 73 -155 117 l-51 19 -11 -21z m105 -88 c31 -14 39 -34 26 -60 -21 -39 -90
-16 -90 30 0 43 17 51 64 30z"/>
<path d="M4406 2498 c-3 -7 -7 -29 -10 -48 -2 -19 -14 -79 -26 -134 -11 -54
-19 -100 -17 -102 2 -2 49 -14 105 -27 86 -21 102 -22 106 -10 7 16 8 63 2 63
-26 0 -112 23 -117 32 -17 27 2 36 62 31 l59 -6 0 31 c0 33 -14 42 -61 42 -30
0 -46 19 -36 44 5 14 39 11 121 -10 27 -6 27 -5 24 32 l-3 38 -90 17 c-111 22
-115 22 -119 7z"/>
<path d="M5476 2451 c-28 -54 -78 -100 -143 -131 -24 -11 -43 -22 -43 -24 0
-3 21 -15 47 -28 58 -28 115 -84 143 -138 11 -22 24 -40 29 -40 5 0 19 20 31
45 24 50 119 142 156 151 32 8 30 19 -6 34 -55 23 -109 69 -146 125 -20 30
-38 55 -40 55 -2 0 -15 -22 -28 -49z"/>
<path d="M4757 2427 c-10 -41 -30 -277 -25 -282 3 -3 22 -8 41 -12 l36 -5 3
43 c2 36 7 44 23 44 14 0 28 -15 45 -50 24 -47 27 -50 60 -47 19 2 36 5 38 6
1 2 -5 23 -15 48 l-17 46 27 32 c46 54 32 136 -29 165 -18 8 -54 18 -81 21
-26 3 -60 7 -75 9 -20 3 -27 -1 -31 -18z m155 -73 c18 -12 7 -55 -16 -65 -37
-17 -76 -4 -76 25 0 48 10 58 49 51 20 -4 39 -9 43 -11z"/>
</g>
</svg>
